<svg width="19" height="17" viewBox="0 0 19 17" fill="none" xmlns="http://www.w3.org/2000/svg">
<g id="create-outline">
<path id="Vector" d="M14.25 7.4375V13.5469C14.25 13.7213 14.2116 13.894 14.137 14.0551C14.0624 14.2163 13.9531 14.3627 13.8152 14.486C13.6774 14.6093 13.5138 14.7072 13.3337 14.7739C13.1536 14.8406 12.9606 14.875 12.7656 14.875H3.85938C3.46569 14.875 3.08814 14.7351 2.80976 14.486C2.53139 14.2369 2.375 13.8991 2.375 13.5469V5.57812C2.375 5.22588 2.53139 4.88807 2.80976 4.639C3.08814 4.38993 3.46569 4.25 3.85938 4.25H10.0745" stroke="#FDFDFD" stroke-linecap="round" stroke-linejoin="round"/>
<path id="Vector_2" d="M17.0681 1.76808C17.0139 1.71477 16.9482 1.67185 16.8749 1.64191C16.8016 1.61197 16.7223 1.59564 16.6417 1.59391C16.5612 1.59217 16.4811 1.60506 16.4063 1.6318C16.3315 1.65854 16.2635 1.69857 16.2065 1.74948L15.7474 2.15821C15.6918 2.20802 15.6605 2.27556 15.6605 2.34598C15.6605 2.41639 15.6918 2.48393 15.7474 2.53374L16.1682 2.9096C16.1958 2.9344 16.2286 2.95407 16.2647 2.9675C16.3008 2.98093 16.3395 2.98784 16.3786 2.98784C16.4177 2.98784 16.4565 2.98093 16.4926 2.9675C16.5287 2.95407 16.5615 2.9344 16.5891 2.9096L17.0366 2.51116C17.263 2.30895 17.2841 1.97958 17.0681 1.76808ZM14.8193 2.98829L8.12032 8.97149C8.0797 9.00769 8.05018 9.05263 8.0346 9.10198L7.72473 9.92774C7.71731 9.95015 7.71678 9.97393 7.72321 9.99658C7.72964 10.0192 7.74278 10.0399 7.76125 10.0564C7.77972 10.073 7.80283 10.0847 7.82815 10.0905C7.85346 10.0962 7.88004 10.0958 7.90508 10.0891L8.82725 9.81187C8.88242 9.79792 8.93264 9.77151 8.97309 9.73517L15.6602 3.74067C15.7221 3.68473 15.7568 3.6092 15.7568 3.5305C15.7568 3.45179 15.7221 3.37627 15.6602 3.32032L15.291 2.98829C15.2284 2.93243 15.1435 2.90106 15.0551 2.90106C14.9667 2.90106 14.8819 2.93243 14.8193 2.98829Z" fill="#FDFDFD"/>
</g>
</svg>
