<svg width="20" height="20" viewBox="0 0 20 20" fill="none" xmlns="http://www.w3.org/2000/svg">
<g id="Vector">
<path id="Vector_2" d="M1.66667 12.857L8.16875 13.3928L7.21042 17.3838C6.95708 18.5713 7.23958 19.253 8.14333 19.5543L9.58875 19.994C9.62296 20.0038 9.65917 20.0015 9.69213 19.9877C9.72509 19.9739 9.75309 19.9493 9.77208 19.9173L15.1471 10.8843C15.1769 10.8323 15.2186 10.7894 15.2683 10.7597C15.318 10.7299 15.3739 10.7142 15.4308 10.7142H20V1.42856H15.0996C14.8846 1.42861 14.671 1.39153 14.4671 1.31874L11.2879 0.183481C10.948 0.0620139 10.5921 5.8599e-05 10.2337 0H2.82C2.02833 0 1.5075 0.603567 1.35208 1.4357L0 7.78655V11.0713C0 12.0562 0.75 12.7678 1.66667 12.857Z" fill="#FDFDFD"/>
</g>
</svg>
