<svg width="18" height="21" viewBox="0 0 18 21" fill="none" xmlns="http://www.w3.org/2000/svg">
<g id="exit-outline">
<path id="Vector" d="M10.9375 7.21875V5.57812C10.9375 5.143 10.7935 4.7257 10.5371 4.41803C10.2807 4.11035 9.93291 3.9375 9.57031 3.9375H3.00781C2.64521 3.9375 2.29746 4.11035 2.04106 4.41803C1.78467 4.7257 1.64063 5.143 1.64062 5.57812V15.4219C1.64062 15.857 1.78467 16.2743 2.04106 16.582C2.29746 16.8896 2.64521 17.0625 3.00781 17.0625H9.57031C9.93291 17.0625 10.2807 16.8896 10.5371 16.582C10.7935 16.2743 10.9375 15.857 10.9375 15.4219V13.7812M13.125 7.21875L15.8594 10.5M15.8594 10.5L13.125 13.7812M15.8594 10.5H6.52832" stroke="#FDFDFD" stroke-linecap="round" stroke-linejoin="round"/>
</g>
</svg>
