<svg width="20" height="20" viewBox="0 0 20 20" fill="none" xmlns="http://www.w3.org/2000/svg">
<g id="information-circle-outline">
<path id="Vector" d="M9.6875 2.5C5.71836 2.5 2.5 5.71836 2.5 9.6875C2.5 13.6566 5.71836 16.875 9.6875 16.875C13.6566 16.875 16.875 13.6566 16.875 9.6875C16.875 5.71836 13.6566 2.5 9.6875 2.5Z" stroke="#FDFDFD" stroke-miterlimit="10"/>
<path id="Vector_2" d="M8.59375 8.59375H9.84375V13.125" stroke="#FDFDFD" stroke-linecap="round" stroke-linejoin="round"/>
<path id="Vector_3" d="M8.125 13.2812H11.5625" stroke="#FDFDFD" stroke-miterlimit="10" stroke-linecap="round"/>
<path id="Vector_4" d="M9.71103 6.375C9.60814 6.375 9.50755 6.40616 9.422 6.46453C9.33645 6.52291 9.26977 6.60588 9.2304 6.70295C9.19102 6.80002 9.18072 6.90684 9.20079 7.00989C9.22087 7.11294 9.27041 7.2076 9.34317 7.2819C9.41592 7.3562 9.50862 7.40679 9.60954 7.42729C9.71045 7.44779 9.81505 7.43727 9.91011 7.39706C10.0052 7.35685 10.0864 7.28876 10.1436 7.2014C10.2007 7.11403 10.2313 7.01132 10.2313 6.90625C10.2313 6.76535 10.1764 6.63023 10.0789 6.5306C9.98132 6.43097 9.849 6.375 9.71103 6.375Z" fill="#FDFDFD"/>
</g>
</svg>
