<svg width="20" height="20" viewBox="0 0 20 20" fill="none" xmlns="http://www.w3.org/2000/svg">
<g id="thumbs-up-sharp">
<path id="Vector" d="M17.8255 6.52279L11.7318 6.05404L12.6302 2.56185C12.8646 1.52279 12.5997 0.926308 11.7525 0.663417L10.3974 0.278652C10.3653 0.270152 10.3314 0.272082 10.3005 0.284161C10.2696 0.296241 10.2433 0.317843 10.2255 0.345839L5.18645 8.24975C5.15851 8.2952 5.11939 8.33274 5.07282 8.35879C5.02626 8.38485 4.9738 8.39854 4.92044 8.39857H0.638016V16.5228H5.23216C5.43369 16.5227 5.63392 16.5552 5.82512 16.6189L8.80559 17.6122C9.12425 17.7185 9.45796 17.7727 9.79387 17.7728H16.7443C17.4865 17.7728 17.9747 17.2447 18.1204 16.5165L19.388 10.9595V8.08529C19.388 7.22357 18.6849 6.60092 17.8255 6.52279Z" fill="#FDFDFD"/>
</g>
</svg>
