<svg width="19" height="21" viewBox="0 0 19 21" fill="none" xmlns="http://www.w3.org/2000/svg">
<g id="Vector">
<path id="Vector_2" d="M2.19481 21C1.83021 20.9993 1.47206 20.9075 1.1556 20.7335C0.442999 20.3455 0 19.5922 0 18.7745V2.22563C0 1.40561 0.442999 0.654636 1.1556 0.266594C1.4796 0.087659 1.84766 -0.00435864 2.22132 0.000158662C2.59499 0.00467596 2.96053 0.105563 3.27974 0.292273L17.9979 8.75843C18.3046 8.94326 18.5575 9.19992 18.7328 9.50434C18.908 9.80877 19 10.151 19 10.4989C19 10.8468 18.908 11.189 18.7328 11.4935C18.5575 11.7979 18.3046 12.0546 17.9979 12.2394L3.27736 20.7078C2.95069 20.8976 2.57653 20.9986 2.19481 21Z" fill="#FDFDFD"/>
</g>
</svg>
