<svg width="39" height="35" viewBox="0 0 39 35" fill="none" xmlns="http://www.w3.org/2000/svg">
<g id="search-sharp">
<path id="Vector" d="M35.3438 29.2578L25.8923 20.7744C27.4155 18.896 28.2348 16.6321 28.2323 14.309C28.2323 8.22842 22.7198 3.28125 15.9443 3.28125C9.16881 3.28125 3.65625 8.22842 3.65625 14.309C3.65625 20.3896 9.16881 25.3367 15.9443 25.3367C18.5329 25.339 21.0555 24.6036 23.1486 23.2367L32.6016 31.7188L35.3438 29.2578ZM15.9443 21.8538C14.2813 21.8539 12.6556 21.4115 11.2729 20.5824C9.89008 19.7534 8.8123 18.5749 8.17584 17.1962C7.53937 15.8174 7.37281 14.3002 7.6972 12.8364C8.0216 11.3727 8.82238 10.0281 9.99829 8.97282C11.1742 7.91752 12.6724 7.19887 14.3034 6.90774C15.9345 6.61662 17.6251 6.7661 19.1614 7.33729C20.6978 7.90848 22.0109 8.87571 22.9347 10.1167C23.8585 11.3576 24.3515 12.8166 24.3514 14.309C24.3488 16.3093 23.4622 18.227 21.8861 19.6414C20.31 21.0558 18.1732 21.8515 15.9443 21.8538Z" fill="#FDFDFD"/>
</g>
</svg>
