<svg width="50" height="50" viewBox="0 0 50 50" fill="none" xmlns="http://www.w3.org/2000/svg">
<g id="search-sharp">
<path id="Vector" d="M45.3125 41.7969L33.1953 29.6777C35.1481 26.9943 36.1985 23.7602 36.1953 20.4414C36.1953 11.7549 29.1279 4.6875 20.4414 4.6875C11.7549 4.6875 4.6875 11.7549 4.6875 20.4414C4.6875 29.1279 11.7549 36.1953 20.4414 36.1953C23.7602 36.1985 26.9943 35.1481 29.6777 33.1953L41.7969 45.3125L45.3125 41.7969ZM20.4414 31.2197C18.3094 31.2199 16.2252 30.5879 14.4524 29.4035C12.6796 28.2191 11.2978 26.5356 10.4818 24.5659C9.66586 22.5962 9.45232 20.4288 9.86821 18.3377C10.2841 16.2467 11.3107 14.3259 12.8183 12.8183C14.3259 11.3107 16.2467 10.2841 18.3377 9.86821C20.4288 9.45232 22.5962 9.66586 24.5659 10.4818C26.5356 11.2978 28.2191 12.6796 29.4035 14.4524C30.5879 16.2252 31.2199 18.3094 31.2197 20.4414C31.2164 23.299 30.0797 26.0385 28.0591 28.0591C26.0385 30.0797 23.299 31.2164 20.4414 31.2197Z" fill="#303739"/>
</g>
</svg>
