<svg width="15" height="15" viewBox="0 0 15 15" fill="none" xmlns="http://www.w3.org/2000/svg">
<g id="star" clip-path="url(#clip0_272_56)">
<path id="Vector" d="M11.543 14.0625C11.4443 14.0628 11.348 14.0321 11.2679 13.9746L7.49999 11.2429L3.73212 13.9746C3.65162 14.033 3.55464 14.0642 3.4552 14.0639C3.35576 14.0635 3.25901 14.0315 3.17893 13.9726C3.09886 13.9136 3.03962 13.8307 3.00977 13.7358C2.97992 13.641 2.98101 13.5391 3.01288 13.4449L4.48241 9.09224L0.673817 6.48043C0.59132 6.42392 0.529057 6.34251 0.496123 6.24809C0.46319 6.15367 0.461312 6.0512 0.490766 5.95564C0.520219 5.86008 0.579459 5.77644 0.659831 5.71695C0.740203 5.65745 0.837494 5.62522 0.937489 5.62496H5.63612L7.05409 1.26119C7.08464 1.16698 7.14424 1.08486 7.22435 1.02662C7.30445 0.968382 7.40095 0.937012 7.49999 0.937012C7.59903 0.937012 7.69553 0.968382 7.77563 1.02662C7.85574 1.08486 7.91534 1.16698 7.94589 1.26119L9.36386 5.62642H14.0625C14.1626 5.62637 14.2601 5.65838 14.3407 5.71776C14.4213 5.77714 14.4808 5.86077 14.5105 5.95641C14.5401 6.05204 14.5383 6.15465 14.5054 6.24921C14.4725 6.34377 14.4102 6.42531 14.3276 6.48189L10.5176 9.09224L11.9862 13.4437C12.01 13.5142 12.0167 13.5893 12.0057 13.6628C11.9948 13.7364 11.9665 13.8062 11.9232 13.8667C11.8799 13.9271 11.8228 13.9764 11.7567 14.0105C11.6906 14.0445 11.6173 14.0623 11.543 14.0625Z" fill="#FDFDFD"/>
</g>
<defs>
<clipPath id="clip0_272_56">
<rect width="15" height="15" fill="white"/>
</clipPath>
</defs>
</svg>
