<svg width="22" height="22" viewBox="0 0 22 22" fill="none" xmlns="http://www.w3.org/2000/svg">
<g id="&#240;&#159;&#166;&#134; icon &#34;media video list&#34;">
<path id="Vector" d="M21 5.23518V20.294C21 20.6839 20.684 20.9999 20.2941 20.9999H5.2353C4.84545 20.9999 4.52942 20.6839 4.52942 20.294V5.23518C4.52942 4.84533 4.84545 4.5293 5.2353 4.5293H20.2941C20.684 4.5293 21 4.84533 21 5.23518Z" stroke="#FDFDFD" stroke-width="2" stroke-linecap="round" stroke-linejoin="round"/>
<path id="Vector_2" d="M17.4706 1H1.70588C1.31604 1 1 1.31604 1 1.70588V17.4706" stroke="#FDFDFD" stroke-width="2" stroke-linecap="round" stroke-linejoin="round"/>
<path id="Vector_3" d="M11.4808 9.87705C11.0103 9.59482 10.4117 9.93364 10.4117 10.4823V15.0478C10.4117 15.5965 11.0103 15.9353 11.4808 15.6531L15.2853 13.3703C15.7422 13.0962 15.7422 12.4339 15.2853 12.1598L11.4808 9.87705Z" stroke="#FDFDFD" stroke-width="2" stroke-linecap="round" stroke-linejoin="round"/>
</g>
</svg>
