<svg width="16" height="16" viewBox="0 0 16 16" fill="none" xmlns="http://www.w3.org/2000/svg">
<g id="Vector" clip-path="url(#clip0_244_518)">
<path id="Vector_2" d="M8.0374 5.61907C7.56789 5.57058 7.09554 5.67502 6.68499 5.91806C6.27445 6.16111 5.94579 6.53089 5.74402 6.97678C5.54225 7.42267 5.47723 7.92286 5.55785 8.40888C5.63848 8.89489 5.86082 9.34298 6.19442 9.69177C6.52802 10.0406 6.95659 10.273 7.42143 10.3573C7.88628 10.4416 8.36468 10.3736 8.79115 10.1627C9.21761 9.95172 9.57128 9.6081 9.80375 9.17886C10.0362 8.74962 10.1361 8.25575 10.0897 7.76486C10.0369 7.21457 9.80365 6.70031 9.42961 6.30924C9.05557 5.91817 8.56372 5.67434 8.0374 5.61907ZM13.5472 8C13.5457 8.26006 13.5275 8.51972 13.4925 8.7772L15.109 10.1028C15.1794 10.1638 15.2268 10.2489 15.2428 10.343C15.2589 10.4371 15.2425 10.5342 15.1966 10.6168L13.6673 13.3832C13.6209 13.4651 13.5483 13.5272 13.4624 13.5585C13.3764 13.5899 13.2826 13.5886 13.1975 13.5548L11.5921 12.8789C11.5036 12.842 11.4077 12.8287 11.3131 12.8401C11.2184 12.8515 11.1279 12.8873 11.0497 12.9443C10.8047 13.1207 10.5473 13.2774 10.2796 13.4131C10.1954 13.4558 10.1226 13.5196 10.0676 13.5988C10.0126 13.6779 9.97711 13.77 9.96422 13.8669L9.72359 15.6572C9.70779 15.7517 9.66107 15.8376 9.59142 15.9001C9.52177 15.9627 9.43351 15.998 9.34173 16H6.28327C6.193 15.9984 6.10596 15.9646 6.03648 15.9044C5.96701 15.8441 5.91924 15.7609 5.90105 15.6684L5.66078 13.8807C5.64729 13.7828 5.61085 13.6898 5.55471 13.6101C5.49857 13.5304 5.42447 13.4665 5.33899 13.4239C5.07162 13.289 4.81503 13.1318 4.57169 12.954C4.49378 12.8973 4.4036 12.8618 4.30929 12.8507C4.21498 12.8395 4.11949 12.8531 4.03143 12.8901L2.4264 13.5656C2.34134 13.5995 2.24759 13.6009 2.16164 13.5695C2.0757 13.5382 2.00308 13.4762 1.95658 13.3944L0.427353 10.628C0.381377 10.5454 0.364947 10.4484 0.380989 10.3542C0.39703 10.2601 0.444502 10.175 0.514952 10.114L1.88114 8.99252C1.95599 8.9304 2.01481 8.84972 2.05228 8.7578C2.08974 8.66589 2.10466 8.56564 2.09567 8.46617C2.0828 8.31028 2.07493 8.15477 2.07493 7.99888C2.07493 7.84299 2.08244 7.68972 2.09567 7.5372C2.10367 7.43833 2.08803 7.33893 2.05014 7.24796C2.01225 7.15699 1.95332 7.0773 1.87864 7.01607L0.513164 5.89458C0.443858 5.83331 0.397386 5.74849 0.381892 5.65498C0.366399 5.56148 0.382872 5.46526 0.428425 5.38318L1.95766 2.61682C2.0041 2.53495 2.07669 2.47284 2.16264 2.44145C2.24859 2.41006 2.34238 2.4114 2.42747 2.44523L4.03286 3.12112C4.12139 3.15798 4.21729 3.17129 4.31195 3.15987C4.40661 3.14846 4.49708 3.11266 4.57526 3.0557C4.82027 2.8793 5.07773 2.72259 5.34542 2.58692C5.42958 2.54415 5.50237 2.48038 5.55737 2.40123C5.61237 2.32208 5.64789 2.22998 5.66078 2.13308L5.90141 0.342804C5.91721 0.248255 5.96393 0.162379 6.03358 0.0998531C6.10323 0.037327 6.19149 0.00203197 6.28327 0H9.34173C9.432 0.00163281 9.51904 0.0353648 9.58852 0.0956388C9.65799 0.155913 9.70576 0.239133 9.72395 0.331589L9.96422 2.11925C9.97771 2.21722 10.0142 2.31019 10.0703 2.38988C10.1264 2.46958 10.2005 2.53354 10.286 2.57607C10.5534 2.71101 10.81 2.86815 11.0533 3.04598C11.1312 3.10266 11.2214 3.13818 11.3157 3.14934C11.41 3.1605 11.5055 3.14695 11.5936 3.10991L13.1986 2.43439C13.2837 2.40053 13.3774 2.39913 13.4634 2.43045C13.5493 2.46177 13.6219 2.5238 13.6684 2.60561L15.1976 5.37196C15.2436 5.45461 15.2601 5.55164 15.244 5.64577C15.228 5.7399 15.1805 5.82502 15.11 5.88598L13.7439 7.00748C13.6687 7.0694 13.6095 7.14999 13.5717 7.24192C13.534 7.33385 13.5188 7.4342 13.5275 7.53383C13.5393 7.6886 13.5472 7.84411 13.5472 8Z" stroke="#FDFDFD" stroke-linecap="round" stroke-linejoin="round"/>
</g>
<defs>
<clipPath id="clip0_244_518">
<rect width="14.875" height="16" fill="white" transform="translate(0.375)"/>
</clipPath>
</defs>
</svg>
