<svg width="111" height="100" viewBox="0 0 111 100" fill="none" xmlns="http://www.w3.org/2000/svg">
<g id="Vector">
<path id="Vector_2" d="M55.5 0C24.8976 0 0 22.4303 0 50C0 77.5697 24.8976 100 55.5 100C86.1024 100 111 77.5697 111 50C111 22.4303 86.1024 0 55.5 0ZM42.1 28.0817C45.4806 24.8534 50.2382 23.0769 55.5 23.0769C60.7618 23.0769 65.4767 24.8654 68.8707 28.1106C72.3101 31.399 73.9831 35.8173 73.5882 40.5673C72.7984 50 64.6869 57.6923 55.5 57.6923C46.3131 57.6923 38.1856 50 37.4118 40.5649C37.0196 35.7764 38.6899 31.3438 42.1 28.0817ZM55.5 92.3077C49.2308 92.3114 43.0246 91.181 37.2495 88.9834C31.4743 86.7858 26.2478 83.5658 21.8798 79.5144C24.3815 76.3004 27.569 73.5677 31.2561 71.476C38.0575 67.5481 46.6654 65.3846 55.5 65.3846C64.3346 65.3846 72.9425 67.5481 79.7359 71.476C83.4261 73.5667 86.6164 76.2995 89.1202 79.5144C84.7526 83.5663 79.5261 86.7865 73.7509 88.9842C67.9757 91.1818 61.7693 92.312 55.5 92.3077Z" fill="#2D5262"/>
</g>
</svg>
