<svg width="20" height="20" viewBox="0 0 20 20" fill="none" xmlns="http://www.w3.org/2000/svg">
<g id="star">
<path id="Vector" d="M15.3906 18.7496C15.2591 18.7501 15.1307 18.7091 15.0238 18.6324L10 14.9902L4.97618 18.6324C4.86885 18.7103 4.73954 18.752 4.60695 18.7515C4.47436 18.751 4.34536 18.7084 4.2386 18.6298C4.13184 18.5511 4.05284 18.4406 4.01304 18.3141C3.97324 18.1876 3.9747 18.0518 4.01719 17.9262L5.97657 12.1227L0.898443 8.64024C0.788447 8.5649 0.705429 8.45635 0.661518 8.33046C0.617607 8.20457 0.615104 8.06794 0.654375 7.94053C0.693646 7.81311 0.772633 7.7016 0.879795 7.62227C0.986957 7.54295 1.11668 7.49997 1.25001 7.49962H7.51485L9.40547 1.68126C9.4462 1.55564 9.52567 1.44616 9.63248 1.3685C9.73929 1.29085 9.86795 1.24902 10 1.24902C10.1321 1.24902 10.2607 1.29085 10.3675 1.3685C10.4743 1.44616 10.5538 1.55564 10.5945 1.68126L12.4852 7.50157H18.75C18.8835 7.50151 19.0135 7.54419 19.121 7.62336C19.2285 7.70253 19.3078 7.81404 19.3473 7.94155C19.3868 8.06906 19.3845 8.20587 19.3406 8.33195C19.2967 8.45803 19.2137 8.56676 19.1035 8.6422L14.0234 12.1227L15.9816 17.9246C16.0134 18.0186 16.0223 18.1187 16.0077 18.2168C15.9931 18.3148 15.9553 18.408 15.8976 18.4886C15.8398 18.5692 15.7638 18.6349 15.6756 18.6803C15.5875 18.7257 15.4898 18.7494 15.3906 18.7496Z" fill="url(#paint0_radial_276_2869)"/>
</g>
<defs>
<radialGradient id="paint0_radial_276_2869" cx="0" cy="0" r="1" gradientUnits="userSpaceOnUse" gradientTransform="translate(10.001 10.0003) rotate(90) scale(8.75124 9.37433)">
<stop stop-color="#FDFDFD"/>
<stop offset="0.81" stop-color="#C89600"/>
</radialGradient>
</defs>
</svg>
